<?xml version="1.0" encoding="UTF-8"?>
<svg version="1.1" xmlns="http://www.w3.org/2000/svg" width="470" height="282">
<path d="M0 0 C9.54591112 5.67852345 17.47132013 13.36153064 20.55859375 24.33203125 C22.36165103 35.23015625 21.86686834 45.3810647 16 55 C8.11806472 65.68406816 -0.00337348 70.70127694 -13 73 C-22.51454212 74.05717135 -31.66526181 70.36760304 -40 66 C-46.29287613 72.9618532 -46.29287613 72.9618532 -52.5 80 C-55.89253093 83.89512811 -59.35194201 87.72782763 -62.8125 91.5625 C-65.28824521 94.32118752 -67.72582887 97.11106939 -70.16015625 99.90625 C-73.73369663 103.97295412 -77.3702953 107.98345603 -81 112 C-78.94597683 116.2072745 -76.63241325 120.2630884 -74.33984375 124.34375 C-70.23591053 132.47982751 -70.71939591 144.3126993 -73.5 152.875 C-78.13816491 163.6973848 -86.27933401 171.45940991 -97.125 175.875 C-107.34604708 178.85911689 -118.61153528 177.98073481 -128 173 C-137.53728571 167.02974983 -144.57850319 158.41249996 -147.25 147.375 C-149.16009471 136.6104832 -147.14769916 127.22154874 -141.125 118.1875 C-140.568125 117.1046875 -140.568125 117.1046875 -140 116 C-141.19861241 112.8008682 -143.0384605 110.71721188 -145.43994141 108.33300781 C-146.14051666 107.63258362 -146.84109192 106.93215942 -147.56289673 106.21051025 C-148.31815643 105.46557312 -149.07341614 104.72063599 -149.8515625 103.953125 C-150.62559418 103.18192322 -151.39962585 102.41072144 -152.19711304 101.6161499 C-154.66841923 99.15603144 -157.14659183 96.70296152 -159.625 94.25 C-161.30254052 92.58249106 -162.97962945 90.91452768 -164.65625 89.24609375 C-168.76560919 85.1587763 -172.88062647 81.07722304 -177 77 C-180.5317066 78.15384342 -183.84379068 79.31562135 -187.125 81.0625 C-194.97821492 85.24141958 -204.74424716 85.26088132 -213.2890625 83.2109375 C-216.92579643 81.92680773 -220.0626951 80.77662406 -223.05078125 78.30078125 C-224.87484662 76.78221005 -224.87484662 76.78221005 -226.88690186 77.20506287 C-229.48435602 78.18221235 -230.80815681 79.44697537 -232.75878906 81.41821289 C-233.47923401 82.13888443 -234.19967896 82.85955597 -234.94195557 83.60206604 C-235.70876648 84.38436081 -236.47557739 85.16665558 -237.265625 85.97265625 C-238.05902283 86.77029892 -238.85242065 87.56794159 -239.66986084 88.38975525 C-242.20369398 90.94038847 -244.72690105 93.50125226 -247.25 96.0625 C-248.9654564 97.79300142 -250.68159405 99.5228278 -252.3984375 101.25195312 C-256.60689643 105.49349906 -260.80667651 109.74349298 -265 114 C-263.80153344 117.03954839 -262.54982429 119.93684945 -261 122.8125 C-256.43091681 132.01911706 -256.05381905 140.83039039 -258.75390625 150.77734375 C-262.75480561 161.64171063 -270.03135907 169.8479468 -280.4375 174.875 C-289.35524526 178.34799125 -300.88708174 178.84696927 -309.85546875 175.16015625 C-319.97237094 169.68707801 -327.49671015 162.61884641 -331.9375 151.875 C-334.72661536 141.96399261 -334.13820241 131.01099229 -329.6796875 121.75390625 C-323.66833573 111.89808532 -316.11835762 105.22865679 -305 102.1875 C-294.54963476 99.91738321 -285.42215044 101.04151976 -275.83203125 106.15625 C-274.1875 107.25 -274.1875 107.25 -272 109 C-268.89148918 107.6142528 -266.73944927 106.00400017 -264.31713867 103.62353516 C-263.26166084 102.59203842 -263.26166084 102.59203842 -262.18486023 101.53970337 C-261.06274895 100.42563614 -261.06274895 100.42563614 -259.91796875 99.2890625 C-259.14439529 98.52451752 -258.37082184 97.75997253 -257.57380676 96.97225952 C-255.94304739 95.35599381 -254.31507359 93.73691338 -252.68969727 92.11523438 C-250.1915765 89.62905701 -247.67541673 87.16213759 -245.15820312 84.6953125 C-243.57697947 83.12354742 -241.99686243 81.55066811 -240.41796875 79.9765625 C-239.65977341 79.23789948 -238.90157806 78.49923645 -238.1204071 77.7381897 C-237.43251602 77.04422089 -236.74462494 76.35025208 -236.03588867 75.63525391 C-235.42396164 75.02839752 -234.81203461 74.42154114 -234.18156433 73.79629517 C-232.76622655 72.06273419 -232.76622655 72.06273419 -233.2401886 69.90756226 C-234.13716174 67.65564539 -235.25039668 65.61353707 -236.4375 63.5 C-241.1063295 54.25734625 -242.12949462 44.90083476 -239 35 C-234.68187134 23.89422465 -228.54467248 15.92412051 -217.5625 10.96875 C-207.96357716 7.33988893 -197.71671387 6.73400654 -188.125 10.8125 C-177.79983886 15.99371804 -170.57594697 23.3372565 -165.6875 33.8125 C-163.19250154 45.38022013 -163.6354292 55.65975271 -169.8125 66 C-170.27269531 66.680625 -170.73289063 67.36125 -171.20703125 68.0625 C-172.25456066 69.98788828 -172.25456066 69.98788828 -171.26455688 71.89190674 C-169.90312279 74.16150021 -168.43725643 75.80329937 -166.56005859 77.66699219 C-165.85948334 78.36741638 -165.15890808 79.06784058 -164.43710327 79.78948975 C-163.68184357 80.53442688 -162.92658386 81.27936401 -162.1484375 82.046875 C-161.37440582 82.81807678 -160.60037415 83.58927856 -159.80288696 84.3838501 C-157.33158077 86.84396856 -154.85340817 89.29703848 -152.375 91.75 C-150.69745948 93.41750894 -149.02037055 95.08547232 -147.34375 96.75390625 C-143.23439081 100.8412237 -139.11937353 104.92277696 -135 109 C-131.97279215 107.80750122 -129.10358192 106.5609337 -126.25 105 C-117.65228467 100.7251583 -109.43742124 100.3414433 -100 102 C-97.53722953 102.86196966 -95.30174581 103.83969754 -93 105.0625 C-89.66496845 106.67875615 -89.66496845 106.67875615 -86 107 C-83.35618236 105.00864745 -81.28246406 102.55925557 -79.125 100.0625 C-78.18974487 99.01896362 -78.18974487 99.01896362 -77.2355957 97.9543457 C-75.47447982 95.9829198 -73.73459273 93.99475492 -72 92 C-71.28972656 91.19820313 -70.57945312 90.39640625 -69.84765625 89.5703125 C-68.77037928 88.34855368 -67.69963738 87.1209895 -66.63671875 85.88671875 C-64.62126228 83.56341213 -62.56151538 81.28251535 -60.5 79 C-54.67745241 72.56365204 -54.67745241 72.56365204 -49 66 C-48.12988281 65.02160156 -48.12988281 65.02160156 -47.2421875 64.0234375 C-45.80268671 62.11573835 -45.80268671 62.11573835 -46.12890625 60.0390625 C-47.16365665 57.61691134 -48.47718109 55.5672636 -49.9375 53.375 C-55.2675934 44.61109643 -55.81362239 36.00801844 -54 26 C-50.95869914 15.09543942 -44.23482454 6.19907887 -34.44921875 0.51953125 C-24.15804326 -4.45198384 -10.34674248 -5.59741806 0 0 Z M-40.7890625 13.88671875 C-46.70194328 21.29966534 -48.67003215 28.13592728 -48.40625 37.62109375 C-47.35019937 46.4045918 -43.64026839 53.44359546 -37.125 59.37890625 C-28.75755508 65.76215927 -20.36003938 66.92136855 -10 66 C-1.67961021 63.89779998 4.87003738 59.9223592 10 53 C14.5942409 44.85627269 16.55577427 36.40978998 14.31640625 27.18359375 C11.05931563 17.46638149 6.5544333 11.17227355 -2.48046875 6.1875 C-15.80492344 -0.09255307 -30.72068298 3.26875519 -40.7890625 13.88671875 Z M-228 27 C-232.78853327 34.5085116 -234.97584851 42.10740867 -234 51 C-231.40050597 61.44253887 -226.49359529 69.14817213 -217.2890625 74.8125 C-209.63696913 78.78218666 -201.27162812 79.01180922 -193 76.9375 C-183.84917919 73.88248995 -177.38107009 67.48922106 -173 59 C-169.71630009 50.60958057 -169.8292231 42.110877 -173 33.6875 C-176.99306635 25.17270781 -183.16728399 19.28443431 -192 16 C-205.6909064 11.72520222 -218.86072759 16.45468568 -228 27 Z M-321 120 C-326.48525764 127.65841461 -327.97954723 136.46968513 -326.58984375 145.734375 C-324.23960203 154.7975826 -319.46379833 161.91209192 -311.4296875 166.78125 C-302.14346939 171.43928866 -293.71882507 172.0296432 -283.77734375 169.09765625 C-275.62954951 165.87750128 -269.96839574 159.68957994 -266 152 C-262.90005392 144.12762835 -262.6836449 135.57852727 -265.6875 127.625 C-269.93001314 118.52127389 -275.35699835 112.65538811 -284.86328125 108.85546875 C-298.90868592 105.02490384 -311.55776933 109.25410829 -321 120 Z M-134 119 C-140.20532859 127.16324397 -141.84725092 134.81954048 -141 145 C-139.20165209 153.65927185 -133.49722786 161.79932562 -126.2734375 166.78125 C-118.3153781 171.04742617 -109.82226558 172.11945563 -101.125 169.875 C-92.34745364 167.00695674 -85.61869591 162.05311082 -81 154 C-76.97050422 145.69679657 -76.75955277 137.04754676 -79.5625 128.3125 C-82.73676008 120.47744255 -88.52263593 114.02747376 -96 110 C-109.87351159 104.48940239 -124.11520168 108.14653547 -134 119 Z " fill="#1C1C1C" transform="translate(408,57)"/>
<path d="M0 0 C6.22363757 6.75709222 9.57023696 13.80397641 9.390625 22.94921875 C8.663841 31.62869685 4.66886788 37.67959764 -1.8125 43.375 C-8.44173758 48.03677009 -15.94390584 48.45537806 -23.8125 47.375 C-31.9619176 44.91544003 -37.70274213 39.79486372 -41.90625 32.46875 C-44.80366294 25.922743 -45.02446438 18.96649885 -42.74609375 12.21484375 C-39.23955066 4.5042708 -35.27044973 -0.16892262 -27.546875 -3.64453125 C-17.56608981 -7.36186451 -9.05099907 -5.22946613 0 0 Z " fill="#070707" transform="translate(408.8125,70.625)"/>
<path d="M0 0 C6.45514549 3.77016296 10.1376839 8.68297345 12.59375 15.7109375 C14.69790369 24.01549675 13.12291387 30.79333588 9.25390625 38.31640625 C5.65741584 44.09648012 -0.15243836 47.74033408 -6.62109375 49.69140625 C-13.77891592 51.15104058 -20.6592207 50.03994933 -27.00390625 46.47265625 C-32.55902928 42.78584814 -37.32623536 36.78136974 -39.3671875 30.36328125 C-40.9975504 21.55596004 -39.28786445 14.81721888 -34.49609375 7.375 C-26.06099792 -3.72002661 -12.30330575 -5.66781501 0 0 Z " fill="#070707" transform="translate(311.74609375,172.68359375)"/>
<path d="M0 0 C8.75123537 4.47737624 13.17034173 10.13602519 16.25 19.375 C17.25027783 28.31190845 14.9242291 35.20634875 10.125 42.6875 C4.03008725 48.38491844 -3.34707064 51.64035566 -11.75 51.375 C-20.25975202 50.44203715 -26.07541431 46.7962417 -31.75 40.375 C-36.32877558 33.41464652 -37.53340076 27.60622494 -36.75 19.375 C-34.84840889 12.48580706 -30.83027764 5.9222701 -24.69140625 2.08984375 C-16.75686503 -1.97205901 -8.50226144 -3.52069589 0 0 Z " fill="#070707" transform="translate(215.75,78.625)"/>
<path d="M0 0 C5.55451065 4.10735845 9.24502306 9.30201109 11 16 C12.24896964 25.64410575 10.08998922 32.27413413 4.875 40.25 C-0.82641288 45.70352536 -7.58907588 48.74636293 -15.5 49.1171875 C-24.19891611 48.70942581 -29.74690072 45.34804507 -35.9296875 39.3203125 C-41.08305726 33.54464903 -42.32562097 26.57068755 -42 19 C-40.30591221 11.12249178 -36.84573672 4.43721455 -30.19921875 -0.27734375 C-20.68756515 -6.00062997 -9.52271971 -5.49262673 0 0 Z " fill="#070707" transform="translate(128,174)"/>
</svg>
