<svg width="408" height="91" viewBox="0 0 408 91" fill="none" xmlns="http://www.w3.org/2000/svg">
<path d="M15.5 90.78L16 0.780029H24.5H34L67.7975 49.8398H59.765L93.425 0H111.913V91H99.5H86.6675V42.1326L90.365 43.1602L71.8775 69.8784H55.5575L37.1975 43.1602L40.7675 42.1326V90.78H28H15.5Z" fill="white"/>
<g clip-path="url(#clip0_8_171)">
<rect y="0.780029" width="20" height="9" fill="#4ADE80"/>
<rect y="9.78003" width="20" height="9" fill="#22C55E"/>
<rect y="18.78" width="20" height="9" fill="#22C55E"/>
<rect y="27.78" width="20" height="9" fill="#16A34A"/>
<rect y="36.78" width="20" height="9" fill="#16A34A"/>
<rect y="45.78" width="20" height="9" fill="#16A34A"/>
<rect y="54.78" width="20" height="9" fill="#15803D"/>
<rect y="63.78" width="20" height="9" fill="#15803D"/>
<rect y="72.78" width="20" height="9" fill="#15803D"/>
<rect y="81.78" width="20" height="9" fill="#15803D"/>
</g>
<path d="M149.875 91C144.01 91 138.825 89.5975 134.32 86.7925C129.815 83.9875 126.287 80.1625 123.737 75.3175C121.187 70.3875 119.912 64.735 119.912 58.36C119.912 51.985 121.187 46.3325 123.737 41.4025C126.287 36.4725 129.815 32.6475 134.32 29.9275C138.825 27.1225 144.01 25.72 149.875 25.72C153.53 25.72 156.887 26.3575 159.947 27.6325C163.092 28.8225 165.685 30.5225 167.725 32.7325C169.85 34.9425 171.21 37.4925 171.805 40.3825V76.3375C171.21 79.2275 169.85 81.7775 167.725 83.9875C165.685 86.1975 163.092 87.94 159.947 89.215C156.887 90.405 153.53 91 149.875 91ZM155.485 69.07C158.63 69.07 161.137 68.0925 163.007 66.1375C164.962 64.0975 165.94 61.505 165.94 58.36C165.94 56.235 165.515 54.4075 164.665 52.8775C163.815 51.2625 162.582 49.9875 160.967 49.0525C159.437 48.1175 157.652 47.65 155.612 47.65C153.572 47.65 151.745 48.1175 150.13 49.0525C148.6 49.9875 147.367 51.2625 146.432 52.8775C145.497 54.4925 145.03 56.32 145.03 58.36C145.03 60.4 145.455 62.2275 146.305 63.8425C147.24 65.4575 148.515 66.7325 150.13 67.6675C151.745 68.6025 153.53 69.07 155.485 69.07ZM165.175 89.725V72.895L168.617 57.595L165.175 42.4225V26.995H189.527V89.725H165.175Z" fill="white"/>
<path d="M199.528 91V28.27H224.518V91H199.528ZM224.518 57.085L212.915 46.7575C216.145 39.9575 219.885 34.985 224.135 31.84C228.47 28.61 233.868 26.995 240.328 26.995C243.218 26.995 245.683 27.335 247.723 28.015C249.848 28.695 251.548 29.6725 252.823 30.9475L238.798 50.8375C238.203 50.1575 237.31 49.605 236.12 49.18C235.015 48.67 233.698 48.415 232.168 48.415C229.618 48.415 227.705 49.18 226.43 50.71C225.155 52.155 224.518 54.28 224.518 57.085Z" fill="white"/>
<path d="M288.777 91C281.977 91 275.858 89.5975 270.418 86.7925C264.978 83.9875 260.685 80.12 257.54 75.19C254.395 70.175 252.823 64.5225 252.823 58.2325C252.823 51.8575 254.395 46.205 257.54 41.275C260.77 36.26 265.105 32.35 270.545 29.545C276.07 26.655 282.275 25.21 289.16 25.21C294.09 25.21 298.51 25.975 302.42 27.505C306.415 29.035 310.113 31.3725 313.513 34.5175L297.83 50.2C296.725 49.18 295.493 48.415 294.133 47.905C292.773 47.395 291.115 47.14 289.16 47.14C287.12 47.14 285.25 47.6075 283.55 48.5425C281.935 49.3925 280.618 50.625 279.598 52.24C278.578 53.855 278.068 55.7675 278.068 57.9775C278.068 60.1875 278.578 62.1425 279.598 63.8425C280.618 65.4575 281.978 66.7325 283.678 67.6675C285.378 68.6025 287.205 69.07 289.16 69.07C291.37 69.07 293.198 68.73 294.643 68.05C296.088 67.37 297.363 66.435 298.467 65.245L314.15 80.9275C310.495 84.3275 306.67 86.8775 302.675 88.5775C298.68 90.1925 294.047 91 288.777 91Z" fill="white"/>
<path d="M349.978 91C343.093 91 336.93 89.5975 331.49 86.7925C326.135 83.9025 321.885 79.95 318.74 74.935C315.68 69.92 314.15 64.2675 314.15 57.9775C314.15 51.6875 315.68 46.0775 318.74 41.1475C321.8 36.2175 326.008 32.35 331.363 29.545C336.803 26.655 342.965 25.21 349.85 25.21C356.735 25.21 362.855 26.655 368.21 29.545C373.565 32.35 377.773 36.2175 380.833 41.1475C383.978 46.0775 385.55 51.6875 385.55 57.9775C385.55 64.2675 384.02 69.92 380.96 74.935C377.9 79.95 373.693 83.9025 368.338 86.7925C362.983 89.5975 356.863 91 349.978 91ZM349.85 69.07C351.975 69.07 353.803 68.645 355.333 67.795C356.948 66.86 358.18 65.585 359.03 63.97C359.88 62.27 360.305 60.315 360.305 58.105C360.305 55.895 359.838 53.9825 358.903 52.3675C358.053 50.6675 356.863 49.3925 355.333 48.5425C353.803 47.6075 351.975 47.14 349.85 47.14C347.81 47.14 345.983 47.6075 344.368 48.5425C342.838 49.4775 341.605 50.795 340.67 52.495C339.82 54.11 339.395 56.0225 339.395 58.2325C339.395 60.3575 339.82 62.27 340.67 63.97C341.605 65.585 342.838 66.86 344.368 67.795C345.983 68.645 347.81 69.07 349.85 69.07Z" fill="white"/>
<defs>
<clipPath id="clip0_8_171">
<path d="M0 2.78003C0 1.67546 0.895431 0.780029 2 0.780029H20V90.78H2C0.895431 90.78 0 89.8846 0 88.78V2.78003Z" fill="white"/>
</clipPath>
</defs>
</svg>
